<svg xmlns="http://www.w3.org/2000/svg" width="100" height="100" viewBox="0 0 100 100">
  <style>
    .st0{fill:#2C6BFF;}
    .st1{fill:#1A2B4A;}
    .st2{fill:#E6F0FF;}
    .st3{fill:#FFFFFF;}
    .st4{fill:#FF5722;}
  </style>
  
  <!-- 背景円 -->
  <circle class="st2" cx="50" cy="50" r="50"/>
  
  <!-- 頭部 -->
  <circle class="st3" cx="50" cy="40" r="25"/>
  
  <!-- 髪型 -->
  <path class="st1" d="M25,40 C25,25 35,15 50,15 C65,15 75,25 75,40 C75,40 65,35 50,35 C35,35 25,40 25,40 Z" fill-rule="evenodd" clip-rule="evenodd"/>
  
  <!-- 眼鏡 -->
  <circle class="st1" cx="40" cy="40" r="5" fill="none" stroke-width="2"/>
  <circle class="st1" cx="60" cy="40" r="5" fill="none" stroke-width="2"/>
  <line x1="45" y1="40" x2="55" y2="40" stroke="#1A2B4A" stroke-width="2"/>
  
  <!-- スーツ -->
  <path class="st1" d="M30,65 L30,100 L70,100 L70,65 C70,65 60,75 50,75 C40,75 30,65 30,65 Z"/>
  
  <!-- シャツと領ネクタイ -->
  <path class="st3" d="M40,65 L40,100 L60,100 L60,65 C60,65 55,70 50,70 C45,70 40,65 40,65 Z"/>
  <path class="st4" d="M45,65 L50,85 L55,65" fill="none" stroke-width="3"/>
  
  <!-- タブレット -->
  <rect class="st0" x="35" y="80" width="30" height="20" rx="2" ry="2"/>
  <rect class="st3" x="38" y="83" width="24" height="14" rx="1" ry="1"/>
  <line x1="40" y1="87" x2="60" y2="87" stroke="#E6F0FF" stroke-width="1"/>
  <line x1="40" y1="90" x2="55" y2="90" stroke="#E6F0FF" stroke-width="1"/>
  <line x1="40" y1="93" x2="58" y2="93" stroke="#E6F0FF" stroke-width="1"/>
</svg>