<svg xmlns="http://www.w3.org/2000/svg" width="100" height="100" viewBox="0 0 100 100">
  <style>
    .st0{fill:#2C6BFF;}
    .st1{fill:#1A2B4A;}
    .st2{fill:#E6F0FF;}
    .st3{fill:#FFFFFF;}
  </style>
  
  <!-- 背景円 -->
  <circle class="st2" cx="50" cy="50" r="50"/>
  
  <!-- 頭部 -->
  <circle class="st3" cx="50" cy="40" r="25"/>
  <path class="st1" d="M50,15 C37.5,15 27.5,25 27.5,37.5 C27.5,50 37.5,60 50,60 C62.5,60 72.5,50 72.5,37.5 C72.5,25 62.5,15 50,15 Z M50,65 C35,65 25,50 25,37.5 C25,25 35,10 50,10 C65,10 75,25 75,37.5 C75,50 65,65 50,65 Z" fill-rule="evenodd" clip-rule="evenodd"/>
  
  <!-- 聴診器 -->
  <path class="st0" d="M35,65 C35,65 30,75 30,80 C30,85 35,85 35,80 L35,70" stroke-width="2" stroke-linecap="round" fill="none"/>
  <path class="st0" d="M65,65 C65,65 70,75 70,80 C70,85 65,85 65,80 L65,70" stroke-width="2" stroke-linecap="round" fill="none"/>
  <path class="st0" d="M35,70 L65,70" stroke-width="2" stroke-linecap="round"/>
  
  <!-- 白衣 -->
  <path class="st3" d="M30,65 L30,100 L70,100 L70,65 C70,65 60,75 50,75 C40,75 30,65 30,65 Z"/>
  <path class="st0" d="M30,65 L30,100 L70,100 L70,65 C70,65 60,75 50,75 C40,75 30,65 30,65 Z" stroke-width="1" fill="none"/>
  
  <!-- 襟 -->
  <path class="st0" d="M40,65 L45,85 L50,75 L55,85 L60,65" fill="none" stroke-width="2"/>
</svg>